<svg width="128" height="128" viewBox="0 0 128 128" fill="none" xmlns="http://www.w3.org/2000/svg">
<path d="M11.8568 27.7137H116.143C122.745 27.7137 128 22.4589 128 15.8568C128 9.25474 122.745 4 116.143 4H11.8568C5.25474 4 0 9.25474 0 15.8568C0 22.4589 5.25474 27.7137 11.8568 27.7137Z" fill="#2F323A"/>
<path d="M116.143 52.1011H11.8568C5.25474 52.1011 0 57.3558 0 63.9579C0 70.56 5.25474 75.8148 11.8568 75.8148H116.143C122.745 75.8148 128 70.56 128 63.9579C128 57.3558 122.745 52.1011 116.143 52.1011Z" fill="#2F323A"/>
<path d="M116.143 100.202H11.8568C5.25474 100.202 0 105.457 0 112.059C0 118.661 5.25474 123.916 11.8568 123.916H116.143C122.745 123.916 128 118.661 128 112.059C128 105.457 122.745 100.202 116.143 100.202Z" fill="#2F323A"/>
</svg>
